<svg xmlns="http://www.w3.org/2000/svg" version="1.1" width="10000" height="300">

<line x1="40" y1="0" x2="10000" y2="0" style="stroke:black;stroke-width:2" />
<line x1="40" y1="0" x2="40" y2="100" style="stroke:black;stroke-width:2" />

<line x1="40" y1="26.19231" x2="10000" y2="26.19231" style="stroke:black;stroke-width:0.5" />

<circle cx="40" cy="5" r="0.25" fill="red" />
<circle cx="40.03125" cy="10" r="0.25" fill="red" />
<circle cx="40.0625" cy="15" r="0.25" fill="red" />
<circle cx="40.09375" cy="20" r="0.25" fill="red" />
<circle cx="40.125" cy="25" r="0.25" fill="red" />
<circle cx="40.15625" cy="27.146158" r="0.25" fill="red" />
<circle cx="40.1875" cy="25.4292316" r="0.25" fill="red" />
<circle cx="40.21875" cy="26.80277272" r="0.25" fill="red" />
<circle cx="40.25" cy="25.70393982" r="0.25" fill="red" />
<circle cx="40.28125" cy="26.58300614" r="0.25" fill="red" />
<circle cx="40.3125" cy="25.87975309" r="0.25" fill="red" />
<circle cx="40.34375" cy="26.44235553" r="0.25" fill="red" />
<circle cx="40.375" cy="25.99227358" r="0.25" fill="red" />
<circle cx="40.40625" cy="26.35233914" r="0.25" fill="red" />
<circle cx="40.4375" cy="26.06428669" r="0.25" fill="red" />
<circle cx="40.46875" cy="26.29472865" r="0.25" fill="red" />
<circle cx="40.5" cy="26.11037508" r="0.25" fill="red" />
<circle cx="40.53125" cy="26.25785794" r="0.25" fill="red" />
<circle cx="40.5625" cy="26.13987165" r="0.25" fill="red" />
<circle cx="40.59375" cy="26.23426068" r="0.25" fill="red" />
<circle cx="40.625" cy="26.15874946" r="0.25" fill="red" />
<circle cx="40.65625" cy="26.21915843" r="0.25" fill="red" />
<circle cx="40.6875" cy="26.17083125" r="0.25" fill="red" />
<circle cx="40.71875" cy="26.209493" r="0.25" fill="red" />
<circle cx="40.75" cy="26.1785636" r="0.25" fill="red" />
<circle cx="40.78125" cy="26.20330712" r="0.25" fill="red" />
<circle cx="40.8125" cy="26.18351231" r="0.25" fill="red" />
<circle cx="40.84375" cy="26.19934816" r="0.25" fill="red" />
<circle cx="40.875" cy="26.18667948" r="0.25" fill="red" />
<circle cx="40.90625" cy="26.19681442" r="0.25" fill="red" />
<circle cx="40.9375" cy="26.18870646" r="0.25" fill="red" />
<circle cx="40.96875" cy="26.19519283" r="0.25" fill="red" />
<circle cx="41" cy="26.19000374" r="0.25" fill="red" />
<circle cx="41.03125" cy="26.19415501" r="0.25" fill="red" />
<circle cx="41.0625" cy="26.19083399" r="0.25" fill="red" />
<circle cx="41.09375" cy="26.19349081" r="0.25" fill="red" />
<circle cx="41.125" cy="26.19136535" r="0.25" fill="red" />
<circle cx="41.15625" cy="26.19306572" r="0.25" fill="red" />
<circle cx="41.1875" cy="26.19170543" r="0.25" fill="red" />
<circle cx="41.21875" cy="26.19279366" r="0.25" fill="red" />
<circle cx="41.25" cy="26.19192307" r="0.25" fill="red" />
<circle cx="41.28125" cy="26.19261954" r="0.25" fill="red" />
<circle cx="41.3125" cy="26.19206237" r="0.25" fill="red" />
<circle cx="41.34375" cy="26.19250811" r="0.25" fill="red" />
<circle cx="41.375" cy="26.19215151" r="0.25" fill="red" />
<circle cx="41.40625" cy="26.19243679" r="0.25" fill="red" />
<circle cx="41.4375" cy="26.19220857" r="0.25" fill="red" />
<circle cx="41.46875" cy="26.19239114" r="0.25" fill="red" />
<circle cx="41.5" cy="26.19224508" r="0.25" fill="red" />
<circle cx="41.53125" cy="26.19236193" r="0.25" fill="red" />
<circle cx="41.5625" cy="26.19226845" r="0.25" fill="red" />
<circle cx="41.59375" cy="26.19234324" r="0.25" fill="red" />
<circle cx="41.625" cy="26.19228341" r="0.25" fill="red" />
<circle cx="41.65625" cy="26.19233127" r="0.25" fill="red" />
<circle cx="41.6875" cy="26.19229298" r="0.25" fill="red" />
<circle cx="41.71875" cy="26.19232361" r="0.25" fill="red" />
<circle cx="41.75" cy="26.19229911" r="0.25" fill="red" />
<circle cx="41.78125" cy="26.19231871" r="0.25" fill="red" />
<circle cx="41.8125" cy="26.19230303" r="0.25" fill="red" />
<circle cx="41.84375" cy="26.19231558" r="0.25" fill="red" />
<circle cx="41.875" cy="26.19230554" r="0.25" fill="red" />
<circle cx="41.90625" cy="26.19231357" r="0.25" fill="red" />
<circle cx="41.9375" cy="26.19230714" r="0.25" fill="red" />
<circle cx="41.96875" cy="26.19231228" r="0.25" fill="red" />
<circle cx="42" cy="26.19230817" r="0.25" fill="red" />
<circle cx="42.03125" cy="26.19231146" r="0.25" fill="red" />
<circle cx="42.0625" cy="26.19230883" r="0.25" fill="red" />
<circle cx="42.09375" cy="26.19231094" r="0.25" fill="red" />
<circle cx="42.125" cy="26.19230925" r="0.25" fill="red" />
<circle cx="42.15625" cy="26.1923106" r="0.25" fill="red" />
<circle cx="42.1875" cy="26.19230952" r="0.25" fill="red" />
<circle cx="42.21875" cy="26.19231038" r="0.25" fill="red" />
<circle cx="42.25" cy="26.19230969" r="0.25" fill="red" />
<circle cx="42.28125" cy="26.19231025" r="0.25" fill="red" />
<circle cx="42.3125" cy="26.1923098" r="0.25" fill="red" />
<circle cx="42.34375" cy="26.19231016" r="0.25" fill="red" />
<circle cx="42.375" cy="26.19230987" r="0.25" fill="red" />
<circle cx="42.40625" cy="26.1923101" r="0.25" fill="red" />
<circle cx="42.4375" cy="26.19230992" r="0.25" fill="red" />
<circle cx="42.46875" cy="26.19231006" r="0.25" fill="red" />
<circle cx="42.5" cy="26.19230995" r="0.25" fill="red" />
<circle cx="42.53125" cy="26.19231004" r="0.25" fill="red" />
<circle cx="42.5625" cy="26.19230997" r="0.25" fill="red" />
<circle cx="42.59375" cy="26.19231003" r="0.25" fill="red" />
<circle cx="42.625" cy="26.19230998" r="0.25" fill="red" />
<circle cx="42.65625" cy="26.19231002" r="0.25" fill="red" />
<circle cx="42.6875" cy="26.19230999" r="0.25" fill="red" />
<circle cx="42.71875" cy="26.19231001" r="0.25" fill="red" />
<circle cx="42.75" cy="26.19230999" r="0.25" fill="red" />
<text x="5" y="30" font-size="5" fill="white">89</text>
<text x="5" y="60" font-size="5" fill="white">26.19230999</text>
<text x="5" y="90" font-size="5" fill="white">26.19231</text>

</svg>