<svg xmlns="http://www.w3.org/2000/svg" version="1.1" width="10000" height="300">

<line x1="40" y1="0" x2="10000" y2="0" style="stroke:black;stroke-width:2" />
<line x1="40" y1="0" x2="40" y2="100" style="stroke:black;stroke-width:2" />

<line x1="40" y1="26.19231" x2="10000" y2="26.19231" style="stroke:black;stroke-width:0.5" />

<circle cx="40" cy="5" r="0.25" fill="red" />
<circle cx="40.03125" cy="10" r="0.25" fill="red" />
<circle cx="40.0625" cy="15" r="0.25" fill="red" />
<circle cx="40.09375" cy="20" r="0.25" fill="red" />
<circle cx="40.125" cy="25" r="0.25" fill="red" />
<circle cx="40.15625" cy="29.215386" r="0.25" fill="red" />
<circle cx="40.1875" cy="32.0542331" r="0.25" fill="red" />
<circle cx="40.21875" cy="33.81715686" r="0.25" fill="red" />
<circle cx="40.25" cy="34.72375732" r="0.25" fill="red" />
<circle cx="40.28125" cy="34.97462143" r="0.25" fill="red" />
<circle cx="40.3125" cy="34.74389756" r="0.25" fill="red" />
<circle cx="40.34375" cy="34.17889087" r="0.25" fill="red" />
<circle cx="40.375" cy="33.40077129" r="0.25" fill="red" />
<circle cx="40.40625" cy="32.50632016" r="0.25" fill="red" />
<circle cx="40.4375" cy="31.57032044" r="0.25" fill="red" />
<circle cx="40.46875" cy="30.64829754" r="0.25" fill="red" />
<circle cx="40.5" cy="29.77938329" r="0.25" fill="red" />
<circle cx="40.53125" cy="28.98913423" r="0.25" fill="red" />
<circle cx="40.5625" cy="28.29218541" r="0.25" fill="red" />
<circle cx="40.59375" cy="27.69466245" r="0.25" fill="red" />
<circle cx="40.625" cy="27.19630747" r="0.25" fill="red" />
<circle cx="40.65625" cy="26.7923007" r="0.25" fill="red" />
<circle cx="40.6875" cy="26.47477902" r="0.25" fill="red" />
<circle cx="40.71875" cy="26.23406614" r="0.25" fill="red" />
<circle cx="40.75" cy="26.05963888" r="0.25" fill="red" />
<circle cx="40.78125" cy="25.94085907" r="0.25" fill="red" />
<circle cx="40.8125" cy="25.86750338" r="0.25" fill="red" />
<circle cx="40.84375" cy="25.83012352" r="0.25" fill="red" />
<circle cx="40.875" cy="25.82026815" r="0.25" fill="red" />
<circle cx="40.90625" cy="25.83059526" r="0.25" fill="red" />
<circle cx="40.9375" cy="25.85490085" r="0.25" fill="red" />
<circle cx="40.96875" cy="25.88808629" r="0.25" fill="red" />
<circle cx="41" cy="25.9260833" r="0.25" fill="red" />
<circle cx="41.03125" cy="25.96575196" r="0.25" fill="red" />
<circle cx="41.0625" cy="26.00476434" r="0.25" fill="red" />
<circle cx="41.09375" cy="26.04148311" r="0.25" fill="red" />
<circle cx="41.125" cy="26.07484227" r="0.25" fill="red" />
<circle cx="41.15625" cy="26.10423505" r="0.25" fill="red" />
<circle cx="41.1875" cy="26.12941206" r="0.25" fill="red" />
<circle cx="41.21875" cy="26.15039165" r="0.25" fill="red" />
<circle cx="41.25" cy="26.16738316" r="0.25" fill="red" />
<circle cx="41.28125" cy="26.18072296" r="0.25" fill="red" />
<circle cx="41.3125" cy="26.19082275" r="0.25" fill="red" />
<circle cx="41.34375" cy="26.19812897" r="0.25" fill="red" />
<circle cx="41.375" cy="26.20309206" r="0.25" fill="red" />
<circle cx="41.40625" cy="26.20614427" r="0.25" fill="red" />
<circle cx="41.4375" cy="26.20768465" r="0.25" fill="red" />
<circle cx="41.46875" cy="26.20806977" r="0.25" fill="red" />
<circle cx="41.5" cy="26.20760914" r="0.25" fill="red" />
<circle cx="41.53125" cy="26.20656402" r="0.25" fill="red" />
<circle cx="41.5625" cy="26.20514896" r="0.25" fill="red" />
<circle cx="41.59375" cy="26.20353497" r="0.25" fill="red" />
<circle cx="41.625" cy="26.20185387" r="0.25" fill="red" />
<circle cx="41.65625" cy="26.20020327" r="0.25" fill="red" />
<circle cx="41.6875" cy="26.19865166" r="0.25" fill="red" />
<circle cx="41.71875" cy="26.1972435" r="0.25" fill="red" />
<circle cx="41.75" cy="26.19600394" r="0.25" fill="red" />
<circle cx="41.78125" cy="26.19494312" r="0.25" fill="red" />
<circle cx="41.8125" cy="26.19405995" r="0.25" fill="red" />
<circle cx="41.84375" cy="26.19334535" r="0.25" fill="red" />
<circle cx="41.875" cy="26.19278494" r="0.25" fill="red" />
<circle cx="41.90625" cy="26.19236119" r="0.25" fill="red" />
<circle cx="41.9375" cy="26.19205518" r="0.25" fill="red" />
<circle cx="41.96875" cy="26.19184782" r="0.25" fill="red" />
<circle cx="42" cy="26.19172085" r="0.25" fill="red" />
<circle cx="42.03125" cy="26.19165741" r="0.25" fill="red" />
<circle cx="42.0625" cy="26.19164245" r="0.25" fill="red" />
<circle cx="42.09375" cy="26.19166293" r="0.25" fill="red" />
<circle cx="42.125" cy="26.19170785" r="0.25" fill="red" />
<circle cx="42.15625" cy="26.19176818" r="0.25" fill="red" />
<circle cx="42.1875" cy="26.19183673" r="0.25" fill="red" />
<circle cx="42.21875" cy="26.19190797" r="0.25" fill="red" />
<circle cx="42.25" cy="26.1919778" r="0.25" fill="red" />
<circle cx="42.28125" cy="26.19204337" r="0.25" fill="red" />
<circle cx="42.3125" cy="26.19210281" r="0.25" fill="red" />
<circle cx="42.34375" cy="26.19215508" r="0.25" fill="red" />
<circle cx="42.375" cy="26.19219978" r="0.25" fill="red" />
<circle cx="42.40625" cy="26.19223695" r="0.25" fill="red" />
<circle cx="42.4375" cy="26.19226701" r="0.25" fill="red" />
<circle cx="42.46875" cy="26.19229055" r="0.25" fill="red" />
<circle cx="42.5" cy="26.19230833" r="0.25" fill="red" />
<circle cx="42.53125" cy="26.19232114" r="0.25" fill="red" />
<circle cx="42.5625" cy="26.19232981" r="0.25" fill="red" />
<circle cx="42.59375" cy="26.19233509" r="0.25" fill="red" />
<circle cx="42.625" cy="26.1923377" r="0.25" fill="red" />
<circle cx="42.65625" cy="26.19233827" r="0.25" fill="red" />
<circle cx="42.6875" cy="26.19233737" r="0.25" fill="red" />
<circle cx="42.71875" cy="26.19233544" r="0.25" fill="red" />
<circle cx="42.75" cy="26.19233286" r="0.25" fill="red" />
<circle cx="42.78125" cy="26.19232995" r="0.25" fill="red" />
<circle cx="42.8125" cy="26.19232693" r="0.25" fill="red" />
<circle cx="42.84375" cy="26.19232398" r="0.25" fill="red" />
<circle cx="42.875" cy="26.19232121" r="0.25" fill="red" />
<circle cx="42.90625" cy="26.1923187" r="0.25" fill="red" />
<circle cx="42.9375" cy="26.1923165" r="0.25" fill="red" />
<circle cx="42.96875" cy="26.19231461" r="0.25" fill="red" />
<circle cx="43" cy="26.19231305" r="0.25" fill="red" />
<circle cx="43.03125" cy="26.19231178" r="0.25" fill="red" />
<circle cx="43.0625" cy="26.1923108" r="0.25" fill="red" />
<circle cx="43.09375" cy="26.19231005" r="0.25" fill="red" />
<circle cx="43.125" cy="26.19230951" r="0.25" fill="red" />
<circle cx="43.15625" cy="26.19230915" r="0.25" fill="red" />
<circle cx="43.1875" cy="26.19230893" r="0.25" fill="red" />
<circle cx="43.21875" cy="26.19230882" r="0.25" fill="red" />
<circle cx="43.25" cy="26.1923088" r="0.25" fill="red" />
<circle cx="43.28125" cy="26.19230884" r="0.25" fill="red" />
<circle cx="43.3125" cy="26.19230893" r="0.25" fill="red" />
<circle cx="43.34375" cy="26.19230904" r="0.25" fill="red" />
<circle cx="43.375" cy="26.19230916" r="0.25" fill="red" />
<circle cx="43.40625" cy="26.19230929" r="0.25" fill="red" />
<circle cx="43.4375" cy="26.19230941" r="0.25" fill="red" />
<circle cx="43.46875" cy="26.19230953" r="0.25" fill="red" />
<circle cx="43.5" cy="26.19230963" r="0.25" fill="red" />
<circle cx="43.53125" cy="26.19230973" r="0.25" fill="red" />
<circle cx="43.5625" cy="26.19230981" r="0.25" fill="red" />
<circle cx="43.59375" cy="26.19230987" r="0.25" fill="red" />
<circle cx="43.625" cy="26.19230993" r="0.25" fill="red" />
<circle cx="43.65625" cy="26.19230997" r="0.25" fill="red" />
<circle cx="43.6875" cy="26.19231" r="0.25" fill="red" />
<text x="5" y="30" font-size="5" fill="white">119</text>
<text x="5" y="60" font-size="5" fill="white">26.19231</text>
<text x="5" y="90" font-size="5" fill="white">26.19231</text>

</svg>