<svg xmlns="http://www.w3.org/2000/svg" version="1.1" width="10000" height="100">

<line x1="20" y1="50" x2="10000" y2="50" style="stroke:black;stroke-width:2" />
<line x1="20" y1="0" x2="20" y2="100" style="stroke:black;stroke-width:2" />

<line x1="20" y1="30" x2="10000" y2="30" style="stroke:black;stroke-width:0.5" />

<circle cx="25" cy="47.8788" r="1" fill="red" />
<circle cx="26" cy="45.8788" r="1" fill="red" />
<circle cx="27" cy="43.8788" r="1" fill="red" />
<circle cx="28" cy="41.8788" r="1" fill="red" />
<circle cx="29" cy="39.8788" r="1" fill="red" />
<circle cx="30" cy="37.8788" r="1" fill="red" />
<circle cx="31" cy="35.8788" r="1" fill="red" />
<circle cx="32" cy="33.8788" r="1" fill="red" />
<circle cx="33" cy="31.8788" r="1" fill="red" />
<circle cx="34" cy="29.8788" r="1" fill="red" />
<circle cx="35" cy="27.8788" r="1" fill="red" />
<circle cx="36" cy="25.8788" r="1" fill="red" />
<circle cx="37" cy="23.8788" r="1" fill="red" />
<circle cx="38" cy="21.8788" r="1" fill="red" />
<circle cx="39" cy="19.8788" r="1" fill="red" />
<circle cx="40" cy="17.8788" r="1" fill="red" />
<circle cx="41" cy="15.8788" r="1" fill="red" />
<circle cx="42" cy="13.8788" r="1" fill="red" />
<circle cx="43" cy="11.8788" r="1" fill="red" />
<circle cx="44" cy="10.4667" r="1" fill="red" />
<circle cx="45" cy="11.4829" r="1" fill="red" />
<circle cx="46" cy="13.4381" r="1" fill="red" />
<circle cx="47" cy="15.4381" r="1" fill="red" />
<circle cx="48" cy="17.4381" r="1" fill="red" />
<circle cx="49" cy="19.4381" r="1" fill="red" />
<circle cx="50" cy="21.4381" r="1" fill="red" />
<circle cx="51" cy="23.4381" r="1" fill="red" />
<circle cx="52" cy="25.4381" r="1" fill="red" />
<circle cx="53" cy="27.4381" r="1" fill="red" />
<circle cx="54" cy="29.4381" r="1" fill="red" />
<circle cx="55" cy="31.4381" r="1" fill="red" />
<circle cx="56" cy="33.4381" r="1" fill="red" />
<circle cx="57" cy="35.4381" r="1" fill="red" />
<circle cx="58" cy="37.4381" r="1" fill="red" />
<circle cx="59" cy="39.4381" r="1" fill="red" />
<circle cx="60" cy="41.4381" r="1" fill="red" />
<circle cx="61" cy="43.4381" r="1" fill="red" />
<circle cx="62" cy="43.5894" r="1" fill="red" />
<circle cx="63" cy="42.8374" r="1" fill="red" />
<circle cx="64" cy="40.8374" r="1" fill="red" />
<circle cx="65" cy="38.8374" r="1" fill="red" />
<circle cx="66" cy="36.8374" r="1" fill="red" />
<circle cx="67" cy="34.8374" r="1" fill="red" />
<circle cx="68" cy="32.8374" r="1" fill="red" />
<circle cx="69" cy="30.8374" r="1" fill="red" />
<circle cx="70" cy="28.8374" r="1" fill="red" />
<circle cx="71" cy="26.8374" r="1" fill="red" />
<circle cx="72" cy="24.8374" r="1" fill="red" />
<circle cx="73" cy="22.8374" r="1" fill="red" />
<circle cx="74" cy="20.8374" r="1" fill="red" />
<circle cx="75" cy="19.427" r="1" fill="red" />
<circle cx="76" cy="19.1892" r="1" fill="red" />
<circle cx="77" cy="19.6903" r="1" fill="red" />
<circle cx="78" cy="21.0466" r="1" fill="red" />
<circle cx="79" cy="22.9128" r="1" fill="red" />
<circle cx="80" cy="24.9128" r="1" fill="red" />
<circle cx="81" cy="26.9128" r="1" fill="red" />
<circle cx="82" cy="28.9128" r="1" fill="red" />
<circle cx="83" cy="30.9128" r="1" fill="red" />
<circle cx="84" cy="32.9128" r="1" fill="red" />
<circle cx="85" cy="34.3906" r="1" fill="red" />
<circle cx="86" cy="35.3245" r="1" fill="red" />
<circle cx="87" cy="35.6511" r="1" fill="red" />
<circle cx="88" cy="35.4234" r="1" fill="red" />
<circle cx="89" cy="34.697" r="1" fill="red" />
<circle cx="90" cy="33.5901" r="1" fill="red" />
<circle cx="91" cy="32.2248" r="1" fill="red" />
<circle cx="92" cy="30.7448" r="1" fill="red" />
<circle cx="93" cy="29.2825" r="1" fill="red" />
<circle cx="94" cy="27.9615" r="1" fill="red" />
<circle cx="95" cy="26.8784" r="1" fill="red" />
<circle cx="96" cy="26.1031" r="1" fill="red" />
<circle cx="97" cy="25.6714" r="1" fill="red" />
<circle cx="98" cy="25.5879" r="1" fill="red" />
<circle cx="99" cy="25.8268" r="1" fill="red" />
<circle cx="100" cy="26.3378" r="1" fill="red" />
<circle cx="101" cy="27.0523" r="1" fill="red" />
<circle cx="102" cy="27.8911" r="1" fill="red" />
<circle cx="103" cy="28.772" r="1" fill="red" />
<circle cx="104" cy="29.6166" r="1" fill="red" />
<circle cx="105" cy="30.3574" r="1" fill="red" />
<circle cx="106" cy="30.9416" r="1" fill="red" />
<circle cx="107" cy="31.3347" r="1" fill="red" />
<circle cx="108" cy="31.5215" r="1" fill="red" />
<circle cx="109" cy="31.5056" r="1" fill="red" />
<circle cx="110" cy="31.3073" r="1" fill="red" />
<circle cx="111" cy="30.9604" r="1" fill="red" />
<circle cx="112" cy="30.5082" r="1" fill="red" />
<circle cx="113" cy="29.9984" r="1" fill="red" />
<circle cx="114" cy="29.4796" r="1" fill="red" />
<circle cx="115" cy="28.9961" r="1" fill="red" />
<circle cx="116" cy="28.5855" r="1" fill="red" />
<circle cx="117" cy="28.2755" r="1" fill="red" />
<circle cx="118" cy="28.0828" r="1" fill="red" />
<circle cx="119" cy="28.0125" r="1" fill="red" />
<circle cx="120" cy="28.0593" r="1" fill="red" />
<circle cx="121" cy="28.2081" r="1" fill="red" />
<circle cx="122" cy="28.4368" r="1" fill="red" />
<circle cx="123" cy="28.7188" r="1" fill="red" />
<circle cx="124" cy="29.0252" r="1" fill="red" />
<circle cx="125" cy="29.3279" r="1" fill="red" />
<circle cx="126" cy="29.6019" r="1" fill="red" />
<circle cx="127" cy="29.8267" r="1" fill="red" />
<circle cx="128" cy="29.988" r="1" fill="red" />
<circle cx="129" cy="30.0781" r="1" fill="red" />
<circle cx="130" cy="30.0962" r="1" fill="red" />
<circle cx="131" cy="30.0474" r="1" fill="red" />
<circle cx="132" cy="29.9422" r="1" fill="red" />
<circle cx="133" cy="29.7947" r="1" fill="red" />
<circle cx="134" cy="29.6212" r="1" fill="red" />
<circle cx="135" cy="29.4389" r="1" fill="red" />
<circle cx="136" cy="29.2639" r="1" fill="red" />
<circle cx="137" cy="29.1103" r="1" fill="red" />
<circle cx="138" cy="28.9889" r="1" fill="red" />
<circle cx="139" cy="28.9071" r="1" fill="red" />
<circle cx="140" cy="28.868" r="1" fill="red" />
<circle cx="141" cy="28.8708" r="1" fill="red" />
<circle cx="142" cy="28.9115" r="1" fill="red" />
<circle cx="143" cy="28.983" r="1" fill="red" />
<circle cx="144" cy="29.0764" r="1" fill="red" />
<circle cx="145" cy="29.1818" r="1" fill="red" />
<circle cx="146" cy="29.2893" r="1" fill="red" />
<circle cx="147" cy="29.3895" r="1" fill="red" />
<circle cx="148" cy="29.4747" r="1" fill="red" />
<circle cx="149" cy="29.5391" r="1" fill="red" />
<circle cx="150" cy="29.5793" r="1" fill="red" />
<circle cx="151" cy="29.5941" r="1" fill="red" />
<circle cx="152" cy="29.5847" r="1" fill="red" />
<circle cx="153" cy="29.5541" r="1" fill="red" />
<circle cx="154" cy="29.5069" r="1" fill="red" />
<circle cx="155" cy="29.4486" r="1" fill="red" />
<circle cx="156" cy="29.3852" r="1" fill="red" />
<circle cx="157" cy="29.3225" r="1" fill="red" />
<circle cx="158" cy="29.2657" r="1" fill="red" />
<circle cx="159" cy="29.219" r="1" fill="red" />
<circle cx="160" cy="29.1855" r="1" fill="red" />
<circle cx="161" cy="29.1667" r="1" fill="red" />
<circle cx="162" cy="29.1628" r="1" fill="red" />
<circle cx="163" cy="29.1727" r="1" fill="red" />
<circle cx="164" cy="29.1944" r="1" fill="red" />
<circle cx="165" cy="29.2248" r="1" fill="red" />
<circle cx="166" cy="29.2607" r="1" fill="red" />
<circle cx="167" cy="29.2984" r="1" fill="red" />
<circle cx="168" cy="29.3347" r="1" fill="red" />
<circle cx="169" cy="29.3666" r="1" fill="red" />
<circle cx="170" cy="29.3918" r="1" fill="red" />
<circle cx="171" cy="29.4088" r="1" fill="red" />
<circle cx="172" cy="29.417" r="1" fill="red" />
<circle cx="173" cy="29.4165" r="1" fill="red" />
<circle cx="174" cy="29.4082" r="1" fill="red" />
<circle cx="175" cy="29.3934" r="1" fill="red" />
<circle cx="176" cy="29.3741" r="1" fill="red" />
<circle cx="177" cy="29.3523" r="1" fill="red" />
<circle cx="178" cy="29.3301" r="1" fill="red" />
<circle cx="179" cy="29.3093" r="1" fill="red" />
<circle cx="180" cy="29.2916" r="1" fill="red" />
<circle cx="181" cy="29.2782" r="1" fill="red" />
<circle cx="182" cy="29.2699" r="1" fill="red" />
<circle cx="183" cy="29.2667" r="1" fill="red" />
<circle cx="184" cy="29.2686" r="1" fill="red" />
<circle cx="185" cy="29.2749" r="1" fill="red" />
<circle cx="186" cy="29.2847" r="1" fill="red" />
<circle cx="187" cy="29.2967" r="1" fill="red" />
<circle cx="188" cy="29.3098" r="1" fill="red" />
<circle cx="189" cy="29.3228" r="1" fill="red" />
<circle cx="190" cy="29.3346" r="1" fill="red" />
<circle cx="191" cy="29.3443" r="1" fill="red" />
<circle cx="192" cy="29.3512" r="1" fill="red" />
<circle cx="193" cy="29.3552" r="1" fill="red" />
<circle cx="194" cy="29.356" r="1" fill="red" />
<circle cx="195" cy="29.354" r="1" fill="red" />
<circle cx="196" cy="29.3495" r="1" fill="red" />
<circle cx="197" cy="29.3432" r="1" fill="red" />
<circle cx="198" cy="29.3358" r="1" fill="red" />
<circle cx="199" cy="29.328" r="1" fill="red" />
<circle cx="200" cy="29.3205" r="1" fill="red" />
<circle cx="201" cy="29.3139" r="1" fill="red" />
<circle cx="202" cy="29.3087" r="1" fill="red" />
<circle cx="203" cy="29.3051" r="1" fill="red" />
<circle cx="204" cy="29.3034" r="1" fill="red" />
<circle cx="205" cy="29.3035" r="1" fill="red" />
<circle cx="206" cy="29.3052" r="1" fill="red" />
<circle cx="207" cy="29.3082" r="1" fill="red" />
<circle cx="208" cy="29.3122" r="1" fill="red" />
<circle cx="209" cy="29.3167" r="1" fill="red" />
<circle cx="210" cy="29.3213" r="1" fill="red" />
<circle cx="211" cy="29.3256" r="1" fill="red" />
<circle cx="212" cy="29.3293" r="1" fill="red" />
<circle cx="213" cy="29.3321" r="1" fill="red" />
<circle cx="214" cy="29.3338" r="1" fill="red" />
<circle cx="215" cy="29.3345" r="1" fill="red" />
<circle cx="216" cy="29.3341" r="1" fill="red" />
<circle cx="217" cy="29.3328" r="1" fill="red" />
<circle cx="218" cy="29.3308" r="1" fill="red" />
<circle cx="219" cy="29.3283" r="1" fill="red" />
<circle cx="220" cy="29.3256" r="1" fill="red" />
<circle cx="221" cy="29.3229" r="1" fill="red" />
<circle cx="222" cy="29.3205" r="1" fill="red" />
<circle cx="223" cy="29.3185" r="1" fill="red" />
<circle cx="224" cy="29.317" r="1" fill="red" />
<circle cx="225" cy="29.3162" r="1" fill="red" />
<circle cx="226" cy="29.316" r="1" fill="red" />
<circle cx="227" cy="29.3164" r="1" fill="red" />
<circle cx="228" cy="29.3173" r="1" fill="red" />
<circle cx="229" cy="29.3186" r="1" fill="red" />
<circle cx="230" cy="29.3202" r="1" fill="red" />
<circle cx="231" cy="29.3218" r="1" fill="red" />
<circle cx="232" cy="29.3233" r="1" fill="red" />
<circle cx="233" cy="29.3247" r="1" fill="red" />
<circle cx="234" cy="29.3258" r="1" fill="red" />
<circle cx="235" cy="29.3265" r="1" fill="red" />
<circle cx="236" cy="29.3269" r="1" fill="red" />
<circle cx="237" cy="29.3269" r="1" fill="red" />
<circle cx="238" cy="29.3265" r="1" fill="red" />
<circle cx="239" cy="29.3259" r="1" fill="red" />
<circle cx="240" cy="29.3251" r="1" fill="red" />
<circle cx="241" cy="29.3241" r="1" fill="red" />
<circle cx="242" cy="29.3232" r="1" fill="red" />
<circle cx="243" cy="29.3223" r="1" fill="red" />
<circle cx="244" cy="29.3215" r="1" fill="red" />
<circle cx="245" cy="29.321" r="1" fill="red" />
<circle cx="246" cy="29.3206" r="1" fill="red" />
<circle cx="247" cy="29.3205" r="1" fill="red" />
<circle cx="248" cy="29.3205" r="1" fill="red" />
<circle cx="249" cy="29.3208" r="1" fill="red" />
<circle cx="250" cy="29.3212" r="1" fill="red" />
<circle cx="251" cy="29.3217" r="1" fill="red" />
<circle cx="252" cy="29.3223" r="1" fill="red" />
<circle cx="253" cy="29.3229" r="1" fill="red" />
<circle cx="254" cy="29.3234" r="1" fill="red" />
<circle cx="255" cy="29.3238" r="1" fill="red" />
<circle cx="256" cy="29.3241" r="1" fill="red" />
<circle cx="257" cy="29.3242" r="1" fill="red" />
<circle cx="258" cy="29.3243" r="1" fill="red" />
<circle cx="259" cy="29.3242" r="1" fill="red" />
<circle cx="260" cy="29.324" r="1" fill="red" />
<circle cx="261" cy="29.3237" r="1" fill="red" />
<circle cx="262" cy="29.3234" r="1" fill="red" />
<circle cx="263" cy="29.3231" r="1" fill="red" />
<circle cx="264" cy="29.3228" r="1" fill="red" />
<circle cx="265" cy="29.3225" r="1" fill="red" />
<circle cx="266" cy="29.3223" r="1" fill="red" />
<circle cx="267" cy="29.3221" r="1" fill="red" />
<circle cx="268" cy="29.322" r="1" fill="red" />
<circle cx="269" cy="29.322" r="1" fill="red" />
<circle cx="270" cy="29.3221" r="1" fill="red" />
<circle cx="271" cy="29.3222" r="1" fill="red" />
<circle cx="272" cy="29.3224" r="1" fill="red" />
<circle cx="273" cy="29.3226" r="1" fill="red" />
<circle cx="274" cy="29.3228" r="1" fill="red" />
<circle cx="275" cy="29.323" r="1" fill="red" />
<circle cx="276" cy="29.3231" r="1" fill="red" />
<circle cx="277" cy="29.3233" r="1" fill="red" />
<circle cx="278" cy="29.3233" r="1" fill="red" />
<circle cx="279" cy="29.3234" r="1" fill="red" />
<circle cx="280" cy="29.3233" r="1" fill="red" />
<circle cx="281" cy="29.3233" r="1" fill="red" />
<circle cx="282" cy="29.3232" r="1" fill="red" />
<circle cx="283" cy="29.3231" r="1" fill="red" />
<circle cx="284" cy="29.323" r="1" fill="red" />
<circle cx="285" cy="29.3229" r="1" fill="red" />
<circle cx="286" cy="29.3228" r="1" fill="red" />
<circle cx="287" cy="29.3227" r="1" fill="red" />
<circle cx="288" cy="29.3226" r="1" fill="red" />
<circle cx="289" cy="29.3226" r="1" fill="red" />
<circle cx="290" cy="29.3226" r="1" fill="red" />
<circle cx="291" cy="29.3226" r="1" fill="red" />
<circle cx="292" cy="29.3226" r="1" fill="red" />
<circle cx="293" cy="29.3227" r="1" fill="red" />
<circle cx="294" cy="29.3227" r="1" fill="red" />
<circle cx="295" cy="29.3228" r="1" fill="red" />
<circle cx="296" cy="29.3229" r="1" fill="red" />
<circle cx="297" cy="29.3229" r="1" fill="red" />
<circle cx="298" cy="29.323" r="1" fill="red" />
<circle cx="299" cy="29.323" r="1" fill="red" />
<circle cx="300" cy="29.323" r="1" fill="red" />
<circle cx="301" cy="29.323" r="1" fill="red" />
<circle cx="302" cy="29.323" r="1" fill="red" />
<circle cx="303" cy="29.323" r="1" fill="red" />
<circle cx="304" cy="29.323" r="1" fill="red" />
<circle cx="305" cy="29.3229" r="1" fill="red" />
<circle cx="306" cy="29.3229" r="1" fill="red" />
<circle cx="307" cy="29.3228" r="1" fill="red" />
<circle cx="308" cy="29.3228" r="1" fill="red" />
<circle cx="309" cy="29.3228" r="1" fill="red" />
<circle cx="310" cy="29.3228" r="1" fill="red" />
<circle cx="311" cy="29.3228" r="1" fill="red" />
<circle cx="312" cy="29.3228" r="1" fill="red" />
<circle cx="313" cy="29.3228" r="1" fill="red" />
<circle cx="314" cy="29.3228" r="1" fill="red" />
<circle cx="315" cy="29.3228" r="1" fill="red" />
<circle cx="316" cy="29.3228" r="1" fill="red" />
<circle cx="317" cy="29.3229" r="1" fill="red" />
<circle cx="318" cy="29.3229" r="1" fill="red" />
<circle cx="319" cy="29.3229" r="1" fill="red" />
<circle cx="320" cy="29.3229" r="1" fill="red" />
<circle cx="321" cy="29.3229" r="1" fill="red" />
<circle cx="322" cy="29.3229" r="1" fill="red" />
<circle cx="323" cy="29.3229" r="1" fill="red" />
<circle cx="324" cy="29.3229" r="1" fill="red" />
<circle cx="325" cy="29.3229" r="1" fill="red" />
<circle cx="326" cy="29.3229" r="1" fill="red" />
<circle cx="327" cy="29.3229" r="1" fill="red" />
<circle cx="328" cy="29.3229" r="1" fill="red" />
<circle cx="329" cy="29.3229" r="1" fill="red" />
<circle cx="330" cy="29.3228" r="1" fill="red" />
<circle cx="331" cy="29.3228" r="1" fill="red" />
<circle cx="332" cy="29.3228" r="1" fill="red" />
<circle cx="333" cy="29.3228" r="1" fill="red" />
<circle cx="334" cy="29.3228" r="1" fill="red" />
<circle cx="335" cy="29.3228" r="1" fill="red" />
<circle cx="336" cy="29.3228" r="1" fill="red" />
<circle cx="337" cy="29.3229" r="1" fill="red" />
<circle cx="338" cy="29.3229" r="1" fill="red" />
<circle cx="339" cy="29.3229" r="1" fill="red" />
<circle cx="340" cy="29.3229" r="1" fill="red" />
<circle cx="341" cy="29.3229" r="1" fill="red" />
<circle cx="342" cy="29.3229" r="1" fill="red" />
<circle cx="343" cy="29.3229" r="1" fill="red" />
<circle cx="344" cy="29.3229" r="1" fill="red" />
<circle cx="345" cy="29.3229" r="1" fill="red" />
<circle cx="346" cy="29.3229" r="1" fill="red" />
<circle cx="347" cy="29.3229" r="1" fill="red" />
<circle cx="348" cy="29.3229" r="1" fill="red" />
<circle cx="349" cy="29.3229" r="1" fill="red" />

</svg>