<svg xmlns="http://www.w3.org/2000/svg" version="1.1" width="15000" height="300">

<line x1="40" y1="0" x2="15000" y2="0" style="stroke:black;stroke-width:2" />
<line x1="40" y1="0" x2="40" y2="100" style="stroke:black;stroke-width:2" />

<line x1="40" y1="26.19231" x2="15000" y2="26.19231" style="stroke:black;stroke-width:0.5" />

<circle cx="40" cy="0.5" r="0.25" fill="red" />
<circle cx="40.5" cy="1" r="0.25" fill="red" />
<circle cx="41" cy="1.5" r="0.25" fill="red" />
<circle cx="41.5" cy="2" r="0.25" fill="red" />
<circle cx="42" cy="2.5" r="0.25" fill="red" />
<circle cx="42.5" cy="3" r="0.25" fill="red" />
<circle cx="43" cy="3.5" r="0.25" fill="red" />
<circle cx="43.5" cy="4" r="0.25" fill="red" />
<circle cx="44" cy="4.5" r="0.25" fill="red" />
<circle cx="44.5" cy="5" r="0.25" fill="red" />
<circle cx="45" cy="5.5" r="0.25" fill="red" />
<circle cx="45.5" cy="6" r="0.25" fill="red" />
<circle cx="46" cy="6.5" r="0.25" fill="red" />
<circle cx="46.5" cy="7" r="0.25" fill="red" />
<circle cx="47" cy="7.5" r="0.25" fill="red" />
<circle cx="47.5" cy="8" r="0.25" fill="red" />
<circle cx="48" cy="8.5" r="0.25" fill="red" />
<circle cx="48.5" cy="9" r="0.25" fill="red" />
<circle cx="49" cy="9.5" r="0.25" fill="red" />
<circle cx="49.5" cy="10" r="0.25" fill="red" />
<circle cx="50" cy="10.5" r="0.25" fill="red" />
<circle cx="50.5" cy="11" r="0.25" fill="red" />
<circle cx="51" cy="11.5" r="0.25" fill="red" />
<circle cx="51.5" cy="12" r="0.25" fill="red" />
<circle cx="52" cy="12.5" r="0.25" fill="red" />
<circle cx="52.5" cy="13" r="0.25" fill="red" />
<circle cx="53" cy="13.5" r="0.25" fill="red" />
<circle cx="53.5" cy="14" r="0.25" fill="red" />
<circle cx="54" cy="14.5" r="0.25" fill="red" />
<circle cx="54.5" cy="15" r="0.25" fill="red" />
<circle cx="55" cy="15.5" r="0.25" fill="red" />
<circle cx="55.5" cy="16" r="0.25" fill="red" />
<circle cx="56" cy="16.5" r="0.25" fill="red" />
<circle cx="56.5" cy="17" r="0.25" fill="red" />
<circle cx="57" cy="17.5" r="0.25" fill="red" />
<circle cx="57.5" cy="18" r="0.25" fill="red" />
<circle cx="58" cy="18.5" r="0.25" fill="red" />
<circle cx="58.5" cy="19" r="0.25" fill="red" />
<circle cx="59" cy="19.5" r="0.25" fill="red" />
<circle cx="59.5" cy="20" r="0.25" fill="red" />
<circle cx="60" cy="20.5" r="0.25" fill="red" />
<circle cx="60.5" cy="21" r="0.25" fill="red" />
<circle cx="61" cy="21.5" r="0.25" fill="red" />
<circle cx="61.5" cy="22" r="0.25" fill="red" />
<circle cx="62" cy="22.5" r="0.25" fill="red" />
<circle cx="62.5" cy="23" r="0.25" fill="red" />
<circle cx="63" cy="23.5" r="0.25" fill="red" />
<circle cx="63.5" cy="24" r="0.25" fill="red" />
<circle cx="64" cy="24.5" r="0.25" fill="red" />
<circle cx="64.5" cy="25" r="0.25" fill="red" />
<circle cx="65" cy="25.5" r="0.25" fill="red" />
<circle cx="65.5" cy="26" r="0.25" fill="red" />
<circle cx="66" cy="26.5" r="0.25" fill="red" />
<circle cx="66.5" cy="27" r="0.25" fill="red" />
<circle cx="67" cy="27.5" r="0.25" fill="red" />
<circle cx="67.5" cy="28" r="0.25" fill="red" />
<circle cx="68" cy="28.5" r="0.25" fill="red" />
<circle cx="68.5" cy="29" r="0.25" fill="red" />
<circle cx="69" cy="29.5" r="0.25" fill="red" />
<circle cx="69.5" cy="30" r="0.25" fill="red" />
<circle cx="70" cy="30.5" r="0.25" fill="red" />
<circle cx="70.5" cy="31" r="0.25" fill="red" />
<circle cx="71" cy="31.5" r="0.25" fill="red" />
<circle cx="71.5" cy="32" r="0.25" fill="red" />
<circle cx="72" cy="32.5" r="0.25" fill="red" />
<circle cx="72.5" cy="33" r="0.25" fill="red" />
<circle cx="73" cy="33.5" r="0.25" fill="red" />
<circle cx="73.5" cy="34" r="0.25" fill="red" />
<circle cx="74" cy="34.5" r="0.25" fill="red" />
<circle cx="74.5" cy="35" r="0.25" fill="red" />
<circle cx="75" cy="35.5" r="0.25" fill="red" />
<circle cx="75.5" cy="36" r="0.25" fill="red" />
<circle cx="76" cy="36.5" r="0.25" fill="red" />
<circle cx="76.5" cy="37" r="0.25" fill="red" />
<circle cx="77" cy="37.5" r="0.25" fill="red" />
<circle cx="77.5" cy="38" r="0.25" fill="red" />
<circle cx="78" cy="38.5" r="0.25" fill="red" />
<circle cx="78.5" cy="39" r="0.25" fill="red" />
<circle cx="79" cy="39.5" r="0.25" fill="red" />
<circle cx="79.5" cy="40" r="0.25" fill="red" />
<circle cx="80" cy="40.5" r="0.25" fill="red" />
<circle cx="80.5" cy="41" r="0.25" fill="red" />
<circle cx="81" cy="41.5" r="0.25" fill="red" />
<circle cx="81.5" cy="42" r="0.25" fill="red" />
<circle cx="82" cy="42.5" r="0.25" fill="red" />
<circle cx="82.5" cy="43" r="0.25" fill="red" />
<circle cx="83" cy="43.5" r="0.25" fill="red" />
<circle cx="83.5" cy="44" r="0.25" fill="red" />
<circle cx="84" cy="44.5" r="0.25" fill="red" />
<circle cx="84.5" cy="45" r="0.25" fill="red" />
<circle cx="85" cy="45.5" r="0.25" fill="red" />
<circle cx="85.5" cy="46" r="0.25" fill="red" />
<circle cx="86" cy="46.5" r="0.25" fill="red" />
<circle cx="86.5" cy="47" r="0.25" fill="red" />
<circle cx="87" cy="47.5" r="0.25" fill="red" />
<circle cx="87.5" cy="48" r="0.25" fill="red" />
<circle cx="88" cy="47.5" r="0.25" fill="red" />
<circle cx="88.5" cy="47" r="0.25" fill="red" />
<circle cx="89" cy="46.5" r="0.25" fill="red" />
<circle cx="89.5" cy="46" r="0.25" fill="red" />
<circle cx="90" cy="45.5" r="0.25" fill="red" />
<circle cx="90.5" cy="45" r="0.25" fill="red" />
<circle cx="91" cy="44.5" r="0.25" fill="red" />
<circle cx="91.5" cy="44" r="0.25" fill="red" />
<circle cx="92" cy="43.5" r="0.25" fill="red" />
<circle cx="92.5" cy="43" r="0.25" fill="red" />
<circle cx="93" cy="42.5" r="0.25" fill="red" />
<circle cx="93.5" cy="42" r="0.25" fill="red" />
<circle cx="94" cy="41.5" r="0.25" fill="red" />
<circle cx="94.5" cy="41" r="0.25" fill="red" />
<circle cx="95" cy="40.5" r="0.25" fill="red" />
<circle cx="95.5" cy="40" r="0.25" fill="red" />
<circle cx="96" cy="39.5" r="0.25" fill="red" />
<circle cx="96.5" cy="39" r="0.25" fill="red" />
<circle cx="97" cy="38.5" r="0.25" fill="red" />
<circle cx="97.5" cy="38" r="0.25" fill="red" />
<circle cx="98" cy="37.5" r="0.25" fill="red" />
<circle cx="98.5" cy="37" r="0.25" fill="red" />
<circle cx="99" cy="36.5" r="0.25" fill="red" />
<circle cx="99.5" cy="36" r="0.25" fill="red" />
<circle cx="100" cy="35.5" r="0.25" fill="red" />
<circle cx="100.5" cy="35" r="0.25" fill="red" />
<circle cx="101" cy="34.5" r="0.25" fill="red" />
<circle cx="101.5" cy="34" r="0.25" fill="red" />
<circle cx="102" cy="33.5" r="0.25" fill="red" />
<circle cx="102.5" cy="33" r="0.25" fill="red" />
<circle cx="103" cy="32.5" r="0.25" fill="red" />
<circle cx="103.5" cy="32" r="0.25" fill="red" />
<circle cx="104" cy="31.5" r="0.25" fill="red" />
<circle cx="104.5" cy="31" r="0.25" fill="red" />
<circle cx="105" cy="30.5" r="0.25" fill="red" />
<circle cx="105.5" cy="30" r="0.25" fill="red" />
<circle cx="106" cy="29.5" r="0.25" fill="red" />
<circle cx="106.5" cy="29" r="0.25" fill="red" />
<circle cx="107" cy="28.5" r="0.25" fill="red" />
<circle cx="107.5" cy="28" r="0.25" fill="red" />
<circle cx="108" cy="27.5" r="0.25" fill="red" />
<circle cx="108.5" cy="27" r="0.25" fill="red" />
<circle cx="109" cy="26.5" r="0.25" fill="red" />
<circle cx="109.5" cy="26" r="0.25" fill="red" />
<circle cx="110" cy="25.5" r="0.25" fill="red" />
<circle cx="110.5" cy="25" r="0.25" fill="red" />
<circle cx="111" cy="24.5" r="0.25" fill="red" />
<circle cx="111.5" cy="24" r="0.25" fill="red" />
<circle cx="112" cy="23.5" r="0.25" fill="red" />
<circle cx="112.5" cy="23" r="0.25" fill="red" />
<circle cx="113" cy="22.5" r="0.25" fill="red" />
<circle cx="113.5" cy="22" r="0.25" fill="red" />
<circle cx="114" cy="21.5" r="0.25" fill="red" />
<circle cx="114.5" cy="21" r="0.25" fill="red" />
<circle cx="115" cy="20.5" r="0.25" fill="red" />
<circle cx="115.5" cy="20" r="0.25" fill="red" />
<circle cx="116" cy="19.5" r="0.25" fill="red" />
<circle cx="116.5" cy="19" r="0.25" fill="red" />
<circle cx="117" cy="18.5" r="0.25" fill="red" />
<circle cx="117.5" cy="18" r="0.25" fill="red" />
<circle cx="118" cy="17.5" r="0.25" fill="red" />
<circle cx="118.5" cy="17" r="0.25" fill="red" />
<circle cx="119" cy="16.5" r="0.25" fill="red" />
<circle cx="119.5" cy="16" r="0.25" fill="red" />
<circle cx="120" cy="15.5" r="0.25" fill="red" />
<circle cx="120.5" cy="15" r="0.25" fill="red" />
<circle cx="121" cy="14.5" r="0.25" fill="red" />
<circle cx="121.5" cy="15" r="0.25" fill="red" />
<circle cx="122" cy="15.5" r="0.25" fill="red" />
<circle cx="122.5" cy="16" r="0.25" fill="red" />
<circle cx="123" cy="16.5" r="0.25" fill="red" />
<circle cx="123.5" cy="17" r="0.25" fill="red" />
<circle cx="124" cy="17.5" r="0.25" fill="red" />
<circle cx="124.5" cy="18" r="0.25" fill="red" />
<circle cx="125" cy="18.5" r="0.25" fill="red" />
<circle cx="125.5" cy="19" r="0.25" fill="red" />
<circle cx="126" cy="19.5" r="0.25" fill="red" />
<circle cx="126.5" cy="20" r="0.25" fill="red" />
<circle cx="127" cy="20.5" r="0.25" fill="red" />
<circle cx="127.5" cy="21" r="0.25" fill="red" />
<circle cx="128" cy="21.5" r="0.25" fill="red" />
<circle cx="128.5" cy="22" r="0.25" fill="red" />
<circle cx="129" cy="22.5" r="0.25" fill="red" />
<circle cx="129.5" cy="23" r="0.25" fill="red" />
<circle cx="130" cy="23.5" r="0.25" fill="red" />
<circle cx="130.5" cy="24" r="0.25" fill="red" />
<circle cx="131" cy="24.5" r="0.25" fill="red" />
<circle cx="131.5" cy="25" r="0.25" fill="red" />
<circle cx="132" cy="25.5" r="0.25" fill="red" />
<circle cx="132.5" cy="26" r="0.25" fill="red" />
<circle cx="133" cy="26.5" r="0.25" fill="red" />
<circle cx="133.5" cy="27" r="0.25" fill="red" />
<circle cx="134" cy="27.5" r="0.25" fill="red" />
<circle cx="134.5" cy="27.9462" r="0.25" fill="red" />
<circle cx="135" cy="27.786951" r="0.25" fill="red" />
<circle cx="135.5" cy="27.8091216" r="0.25" fill="red" />
<circle cx="136" cy="27.59301456" r="0.25" fill="red" />
<circle cx="136.5" cy="27.5244274" r="0.25" fill="red" />
<circle cx="137" cy="27.34695969" r="0.25" fill="red" />
<circle cx="137.5" cy="27.26415889" r="0.25" fill="red" />
<circle cx="138" cy="27.12857393" r="0.25" fill="red" />
<circle cx="138.5" cy="27.05078278" r="0.25" fill="red" />
<circle cx="139" cy="26.94759736" r="0.25" fill="red" />
<circle cx="139.5" cy="26.87968691" r="0.25" fill="red" />
<circle cx="140" cy="26.80036673" r="0.25" fill="red" />
<circle cx="140.5" cy="26.74298397" r="0.25" fill="red" />
<circle cx="141" cy="26.68133535" r="0.25" fill="red" />
<circle cx="141.5" cy="26.63371257" r="0.25" fill="red" />
<circle cx="142" cy="26.58536456" r="0.25" fill="red" />
<circle cx="142.5" cy="26.54627668" r="0.25" fill="red" />
<circle cx="143" cy="26.50810197" r="0.25" fill="red" />
<circle cx="143.5" cy="26.47624882" r="0.25" fill="red" />
<circle cx="144" cy="26.44595847" r="0.25" fill="red" />
<circle cx="144.5" cy="26.42012478" r="0.25" fill="red" />
<circle cx="145" cy="26.39600631" r="0.25" fill="red" />
<circle cx="145.5" cy="26.37512211" r="0.25" fill="red" />
<circle cx="146" cy="26.35587062" r="0.25" fill="red" />
<circle cx="146.5" cy="26.33902475" r="0.25" fill="red" />
<circle cx="147" cy="26.32363158" r="0.25" fill="red" />
<circle cx="147.5" cy="26.31006361" r="0.25" fill="red" />
<circle cx="148" cy="26.29774069" r="0.25" fill="red" />
<circle cx="148.5" cy="26.28682411" r="0.25" fill="red" />
<circle cx="149" cy="26.2769508" r="0.25" fill="red" />
<circle cx="149.5" cy="26.26817374" r="0.25" fill="red" />
<circle cx="150" cy="26.26025849" r="0.25" fill="red" />
<circle cx="150.5" cy="26.25320509" r="0.25" fill="red" />
<circle cx="151" cy="26.24685703" r="0.25" fill="red" />
<circle cx="151.5" cy="26.24119073" r="0.25" fill="red" />
<circle cx="152" cy="26.23609813" r="0.25" fill="red" />
<circle cx="152.5" cy="26.2315472" r="0.25" fill="red" />
<circle cx="153" cy="26.22746098" r="0.25" fill="red" />
<circle cx="153.5" cy="26.22380647" r="0.25" fill="red" />
<circle cx="154" cy="26.22052731" r="0.25" fill="red" />
<circle cx="154.5" cy="26.21759297" r="0.25" fill="red" />
<circle cx="155" cy="26.21496123" r="0.25" fill="red" />
<circle cx="155.5" cy="26.21260533" r="0.25" fill="red" />
<circle cx="156" cy="26.21049304" r="0.25" fill="red" />
<circle cx="156.5" cy="26.20860165" r="0.25" fill="red" />
<circle cx="157" cy="26.20690622" r="0.25" fill="red" />
<circle cx="157.5" cy="26.20538781" r="0.25" fill="red" />
<circle cx="158" cy="26.20402692" r="0.25" fill="red" />
<circle cx="158.5" cy="26.20280797" r="0.25" fill="red" />
<circle cx="159" cy="26.20171559" r="0.25" fill="red" />
<circle cx="159.5" cy="26.20073706" r="0.25" fill="red" />
<circle cx="160" cy="26.1998602" r="0.25" fill="red" />
<circle cx="160.5" cy="26.19907468" r="0.25" fill="red" />
<circle cx="161" cy="26.19837081" r="0.25" fill="red" />
<circle cx="161.5" cy="26.19774024" r="0.25" fill="red" />
<circle cx="162" cy="26.19717522" r="0.25" fill="red" />
<circle cx="162.5" cy="26.19666903" r="0.25" fill="red" />
<circle cx="163" cy="26.19621548" r="0.25" fill="red" />
<circle cx="163.5" cy="26.19580914" r="0.25" fill="red" />
<circle cx="164" cy="26.19544507" r="0.25" fill="red" />
<circle cx="164.5" cy="26.19511888" r="0.25" fill="red" />
<circle cx="165" cy="26.19482662" r="0.25" fill="red" />
<circle cx="165.5" cy="26.19456478" r="0.25" fill="red" />
<circle cx="166" cy="26.19433018" r="0.25" fill="red" />
<circle cx="166.5" cy="26.19411999" r="0.25" fill="red" />
<circle cx="167" cy="26.19393167" r="0.25" fill="red" />
<circle cx="167.5" cy="26.19376294" r="0.25" fill="red" />
<circle cx="168" cy="26.19361177" r="0.25" fill="red" />
<circle cx="168.5" cy="26.19347632" r="0.25" fill="red" />
<circle cx="169" cy="26.19335497" r="0.25" fill="red" />
<circle cx="169.5" cy="26.19324625" r="0.25" fill="red" />
<circle cx="170" cy="26.19314884" r="0.25" fill="red" />
<circle cx="170.5" cy="26.19306156" r="0.25" fill="red" />
<circle cx="171" cy="26.19298336" r="0.25" fill="red" />
<circle cx="171.5" cy="26.1929133" r="0.25" fill="red" />
<circle cx="172" cy="26.19285053" r="0.25" fill="red" />
<circle cx="172.5" cy="26.19279429" r="0.25" fill="red" />
<circle cx="173" cy="26.1927439" r="0.25" fill="red" />
<circle cx="173.5" cy="26.19269876" r="0.25" fill="red" />
<circle cx="174" cy="26.19265831" r="0.25" fill="red" />
<circle cx="174.5" cy="26.19262207" r="0.25" fill="red" />
<circle cx="175" cy="26.1925896" r="0.25" fill="red" />
<circle cx="175.5" cy="26.19256051" r="0.25" fill="red" />
<circle cx="176" cy="26.19253444" r="0.25" fill="red" />
<circle cx="176.5" cy="26.19251109" r="0.25" fill="red" />
<circle cx="177" cy="26.19249017" r="0.25" fill="red" />
<circle cx="177.5" cy="26.19247142" r="0.25" fill="red" />
<circle cx="178" cy="26.19245463" r="0.25" fill="red" />
<circle cx="178.5" cy="26.19243958" r="0.25" fill="red" />
<circle cx="179" cy="26.1924261" r="0.25" fill="red" />
<circle cx="179.5" cy="26.19241402" r="0.25" fill="red" />
<circle cx="180" cy="26.1924032" r="0.25" fill="red" />
<circle cx="180.5" cy="26.1923935" r="0.25" fill="red" />
<circle cx="181" cy="26.19238481" r="0.25" fill="red" />
<circle cx="181.5" cy="26.19237703" r="0.25" fill="red" />
<circle cx="182" cy="26.19237005" r="0.25" fill="red" />
<circle cx="182.5" cy="26.19236381" r="0.25" fill="red" />
<circle cx="183" cy="26.19235821" r="0.25" fill="red" />
<circle cx="183.5" cy="26.19235319" r="0.25" fill="red" />
<circle cx="184" cy="26.1923487" r="0.25" fill="red" />
<circle cx="184.5" cy="26.19234467" r="0.25" fill="red" />
<circle cx="185" cy="26.19234106" r="0.25" fill="red" />
<circle cx="185.5" cy="26.19233783" r="0.25" fill="red" />
<circle cx="186" cy="26.19233494" r="0.25" fill="red" />
<circle cx="186.5" cy="26.19233234" r="0.25" fill="red" />
<circle cx="187" cy="26.19233002" r="0.25" fill="red" />
<circle cx="187.5" cy="26.19232793" r="0.25" fill="red" />
<circle cx="188" cy="26.19232607" r="0.25" fill="red" />
<circle cx="188.5" cy="26.1923244" r="0.25" fill="red" />
<circle cx="189" cy="26.1923229" r="0.25" fill="red" />
<circle cx="189.5" cy="26.19232156" r="0.25" fill="red" />
<circle cx="190" cy="26.19232035" r="0.25" fill="red" />
<circle cx="190.5" cy="26.19231928" r="0.25" fill="red" />
<circle cx="191" cy="26.19231831" r="0.25" fill="red" />
<circle cx="191.5" cy="26.19231745" r="0.25" fill="red" />
<circle cx="192" cy="26.19231667" r="0.25" fill="red" />
<circle cx="192.5" cy="26.19231598" r="0.25" fill="red" />
<circle cx="193" cy="26.19231536" r="0.25" fill="red" />
<circle cx="193.5" cy="26.1923148" r="0.25" fill="red" />
<circle cx="194" cy="26.1923143" r="0.25" fill="red" />
<circle cx="194.5" cy="26.19231385" r="0.25" fill="red" />
<circle cx="195" cy="26.19231345" r="0.25" fill="red" />
<circle cx="195.5" cy="26.19231309" r="0.25" fill="red" />
<circle cx="196" cy="26.19231277" r="0.25" fill="red" />
<circle cx="196.5" cy="26.19231248" r="0.25" fill="red" />
<circle cx="197" cy="26.19231222" r="0.25" fill="red" />
<circle cx="197.5" cy="26.19231199" r="0.25" fill="red" />
<circle cx="198" cy="26.19231179" r="0.25" fill="red" />
<circle cx="198.5" cy="26.1923116" r="0.25" fill="red" />
<circle cx="199" cy="26.19231143" r="0.25" fill="red" />
<circle cx="199.5" cy="26.19231128" r="0.25" fill="red" />
<circle cx="200" cy="26.19231115" r="0.25" fill="red" />
<circle cx="200.5" cy="26.19231103" r="0.25" fill="red" />
<circle cx="201" cy="26.19231092" r="0.25" fill="red" />
<circle cx="201.5" cy="26.19231083" r="0.25" fill="red" />
<circle cx="202" cy="26.19231074" r="0.25" fill="red" />
<circle cx="202.5" cy="26.19231066" r="0.25" fill="red" />
<circle cx="203" cy="26.1923106" r="0.25" fill="red" />
<circle cx="203.5" cy="26.19231053" r="0.25" fill="red" />
<circle cx="204" cy="26.19231048" r="0.25" fill="red" />
<circle cx="204.5" cy="26.19231043" r="0.25" fill="red" />
<circle cx="205" cy="26.19231038" r="0.25" fill="red" />
<circle cx="205.5" cy="26.19231034" r="0.25" fill="red" />
<circle cx="206" cy="26.19231031" r="0.25" fill="red" />
<circle cx="206.5" cy="26.19231028" r="0.25" fill="red" />
<circle cx="207" cy="26.19231025" r="0.25" fill="red" />
<circle cx="207.5" cy="26.19231022" r="0.25" fill="red" />
<circle cx="208" cy="26.1923102" r="0.25" fill="red" />
<circle cx="208.5" cy="26.19231018" r="0.25" fill="red" />
<circle cx="209" cy="26.19231016" r="0.25" fill="red" />
<circle cx="209.5" cy="26.19231014" r="0.25" fill="red" />
<circle cx="210" cy="26.19231013" r="0.25" fill="red" />
<circle cx="210.5" cy="26.19231011" r="0.25" fill="red" />
<circle cx="211" cy="26.1923101" r="0.25" fill="red" />
<circle cx="211.5" cy="26.19231009" r="0.25" fill="red" />
<circle cx="212" cy="26.19231008" r="0.25" fill="red" />
<circle cx="212.5" cy="26.19231007" r="0.25" fill="red" />
<circle cx="213" cy="26.19231007" r="0.25" fill="red" />
<circle cx="213.5" cy="26.19231006" r="0.25" fill="red" />
<circle cx="214" cy="26.19231005" r="0.25" fill="red" />
<circle cx="214.5" cy="26.19231005" r="0.25" fill="red" />
<circle cx="215" cy="26.19231004" r="0.25" fill="red" />
<circle cx="215.5" cy="26.19231004" r="0.25" fill="red" />
<circle cx="216" cy="26.19231003" r="0.25" fill="red" />
<circle cx="216.5" cy="26.19231003" r="0.25" fill="red" />
<circle cx="217" cy="26.19231003" r="0.25" fill="red" />
<circle cx="217.5" cy="26.19231002" r="0.25" fill="red" />
<circle cx="218" cy="26.19231002" r="0.25" fill="red" />
<circle cx="218.5" cy="26.19231002" r="0.25" fill="red" />
<circle cx="219" cy="26.19231002" r="0.25" fill="red" />
<circle cx="219.5" cy="26.19231002" r="0.25" fill="red" />
<circle cx="220" cy="26.19231001" r="0.25" fill="red" />
<circle cx="220.5" cy="26.19231001" r="0.25" fill="red" />
<circle cx="221" cy="26.19231001" r="0.25" fill="red" />
<circle cx="221.5" cy="26.19231001" r="0.25" fill="red" />
<circle cx="222" cy="26.19231001" r="0.25" fill="red" />
<text x="5" y="30" font-size="5" fill="white">365</text>
<text x="5" y="60" font-size="5" fill="white">26.19231001</text>
<text x="5" y="90" font-size="5" fill="white">26.19231</text>

</svg>